<?xml version="1.0" encoding="UTF-8" standalone="no"?><!DOCTYPE svg PUBLIC "-//W3C//DTD SVG 1.1//EN" "http://www.w3.org/Graphics/SVG/1.1/DTD/svg11.dtd"><svg width="100%" height="100%" viewBox="0 0 546 219" version="1.1" xmlns="http://www.w3.org/2000/svg" xmlns:xlink="http://www.w3.org/1999/xlink" xml:space="preserve" xmlns:serif="http://www.serif.com/" style="fill-rule:evenodd;clip-rule:evenodd;stroke-linejoin:round;stroke-miterlimit:2;"><g><g id="Final"><g><path d="M53.973,194.591l42.081,-16.218c0,0 10.868,6.944 15.519,9.916c1.304,0.833 2.924,1.009 4.377,0.474c0,0 0,0 0.001,0c2.186,-0.806 3.52,-3.021 3.207,-5.33c-1.621,-11.992 -6.373,-47.148 -6.373,-47.148c0,0 30.063,63.985 36.978,78.703c0.796,1.693 2.754,2.497 4.51,1.85c0.001,0 0.002,-0.001 0.002,-0.001c1.324,-0.487 2.166,-1.791 2.066,-3.199c-0.785,-10.983 -4.024,-56.313 -4.024,-56.313l40.413,-14.077c6.304,10.979 9.909,23.702 9.909,37.259c0,8.184 -1.339,16.278 -3.923,23.974c-2.763,8.09 -10.364,13.527 -18.913,13.526c-24.864,0 -79.464,0 -104.329,-0.01c-8.543,0 -16.141,-5.434 -18.902,-13.52c-1.09,-3.232 -1.958,-6.535 -2.599,-9.886Zm-0.878,-5.825c-0.303,-2.735 -0.456,-5.491 -0.456,-8.259c0,-41.393 33.606,-75 75,-75c25.915,0 48.778,13.173 62.252,33.182l-44.635,15.642l2.951,40.887c0,0 -30.708,-65.476 -37.953,-80.924c-0.859,-1.831 -2.976,-2.701 -4.874,-2.002c-0.001,0 -0.001,0.001 -0.002,0.001c-1.632,0.601 -2.627,2.256 -2.391,3.98c1.78,13.015 8.843,64.642 8.843,64.642l-14.455,-9.161l-44.28,17.012Z" style="fill:#fff;"/></g><g><path id="central" d="M127.639,89.469c0,0 44.391,-31.554 44.391,-45.078c0,-24.5 -19.891,-44.391 -44.391,-44.391c-24.5,0 -44.392,19.891 -44.392,44.391c0,13.524 44.392,45.078 44.392,45.078Z" style="fill:#fff;"/><path id="izquierda" d="M72.072,101.862c-5.249,-2.282 8.579,-50.754 -0.458,-59.792c-16.374,-16.373 -42.96,-16.373 -59.334,0c-16.373,16.374 -16.373,42.96 0,59.334c9.038,9.037 56.026,4.109 59.792,0.458Z" style="fill:#fff;"/><path id="derecha" d="M183.172,101.862c3.766,3.651 50.754,8.579 59.792,-0.458c16.374,-16.374 16.374,-42.96 0,-59.334c-16.373,-16.373 -42.96,-16.373 -59.333,0c-9.038,9.038 4.79,57.51 -0.459,59.792Z" style="fill:#fff;"/></g></g><g id="Letras"><path d="M379.412,98.066c-1.834,0 -3.349,-0.683 -4.544,-2.048c-1.194,-1.366 -1.792,-3.072 -1.792,-5.12c0,-2.048 0.459,-4.299 1.376,-6.752c0.918,-2.454 2.102,-4.662 3.552,-6.624c1.451,-1.963 2.923,-3.286 4.416,-3.968c0.854,-0.47 1.814,-0.704 2.88,-0.704c0.811,0 1.728,0.234 2.752,0.704c0.726,0.298 1.28,0.661 1.664,1.088c0.384,0.426 0.726,1.088 1.024,1.984c0.128,0.768 0.192,1.301 0.192,1.6c0,0.256 -0.106,0.81 -0.32,1.664c-0.512,1.578 -1.184,2.912 -2.016,4c-0.832,1.088 -1.909,2.016 -3.232,2.784c-0.682,0.426 -1.536,0.64 -2.56,0.64c-0.896,0 -1.738,-0.16 -2.528,-0.48c-0.789,-0.32 -1.397,-0.8 -1.824,-1.44l-0.448,-0.512l-0.192,0.512c-0.896,2.304 -1.344,4.266 -1.344,5.888c0,1.109 0.214,2.005 0.64,2.688c0.299,0.469 1.024,0.704 2.176,0.704c0.854,0 1.472,-0.086 1.856,-0.256c0.64,-0.214 1.206,-0.48 1.696,-0.8c0.491,-0.32 0.971,-0.651 1.44,-0.992l0.256,-0.128l-0.064,0c0.512,-0.256 0.939,-0.491 1.28,-0.704c0.342,-0.214 0.576,-0.363 0.704,-0.448c0.086,0 0.171,-0.022 0.256,-0.064c0.086,-0.043 0.171,-0.128 0.256,-0.256c0.384,-0.171 0.832,-0.107 1.344,0.192c0.512,0.298 0.768,0.682 0.768,1.152c-0.085,0.341 -0.469,0.896 -1.152,1.664c-0.682,0.768 -1.194,1.173 -1.536,1.216c-0.042,0 -0.192,0.064 -0.448,0.192c-0.256,0.128 -0.426,0.234 -0.512,0.32l0.064,0c-0.384,0.512 -0.768,0.768 -1.152,0.768l-0.512,0c-0.17,0.341 -0.736,0.682 -1.696,1.024c-0.96,0.341 -1.866,0.512 -2.72,0.512Zm2.88,-14.08c1.28,0 2.454,-0.726 3.52,-2.176c1.024,-1.366 1.536,-2.731 1.536,-4.096c0,-0.726 -0.149,-1.238 -0.448,-1.536c-0.256,-0.128 -0.49,-0.192 -0.704,-0.192c-0.213,0 -0.576,0.064 -1.088,0.192c-0.554,0.128 -1.408,0.714 -2.56,1.76c-1.152,1.045 -2.005,1.973 -2.56,2.784l-0.832,1.344c0.342,-0.128 0.672,-0.203 0.992,-0.224c0.32,-0.022 0.502,0.01 0.544,0.096c0,0.597 0.15,1.088 0.448,1.472c0.299,0.384 0.683,0.576 1.152,0.576Z" style="fill:#fff;"/><path d="M397.844,95.89c-0.256,0 -0.618,-0.086 -1.088,-0.256c-0.469,-0.171 -0.768,-0.32 -0.896,-0.448c-0.426,-0.427 -0.64,-0.918 -0.64,-1.472c0,-0.939 0.47,-2.07 1.408,-3.392c0.256,-0.512 0.896,-2.283 1.92,-5.312l1.28,-3.52c0.086,-0.726 0.043,-1.248 -0.128,-1.568c-0.17,-0.32 -0.533,-0.502 -1.088,-0.544l-0.384,0c-0.384,0 -0.64,-0.075 -0.768,-0.224c-0.128,-0.15 -0.192,-0.544 -0.192,-1.184c0.043,-0.512 0.171,-0.896 0.384,-1.152c0.214,-0.256 0.576,-0.555 1.088,-0.896c0.683,-0.342 1.387,-0.512 2.112,-0.512c0.683,0 1.195,0.149 1.536,0.448c0.256,0.17 0.438,0.544 0.544,1.12c0.107,0.576 0.171,1.173 0.192,1.792c0.022,0.618 0.054,1.056 0.096,1.312c0.214,-0.214 0.736,-0.651 1.568,-1.312c0.832,-0.662 1.547,-1.291 2.144,-1.888c0.726,-0.512 1.558,-1.003 2.496,-1.472c0.939,-0.47 1.6,-0.704 1.984,-0.704c0.47,0 0.939,0.117 1.408,0.352c0.47,0.234 0.79,0.522 0.96,0.864c0.384,0.682 0.576,1.301 0.576,1.856c0,0.597 -0.234,1.194 -0.704,1.792c-0.384,0.469 -0.874,0.832 -1.472,1.088c-0.597,0.256 -1.024,0.384 -1.28,0.384c-0.256,0 -0.576,-0.192 -0.96,-0.576c-0.384,-0.384 -0.597,-0.704 -0.64,-0.96c0,-0.171 -0.544,0.16 -1.632,0.992c-1.088,0.832 -1.93,1.546 -2.528,2.144c-0.682,0.81 -1.376,1.877 -2.08,3.2c-0.704,1.322 -1.738,3.328 -3.104,6.016c-0.128,0.298 -0.426,1.024 -0.896,2.176c-0.213,0.682 -0.405,1.162 -0.576,1.44c-0.17,0.277 -0.384,0.416 -0.64,0.416Z" style="fill:#fff;"/><path d="M427.732,70.482c-0.81,0 -1.632,-0.438 -2.464,-1.312c-0.832,-0.875 -1.248,-1.782 -1.248,-2.72c0,-0.214 0.256,-0.704 0.768,-1.472c0.512,-0.768 0.768,-1.195 0.768,-1.28c0.299,0 0.555,0.021 0.768,0.064c0.214,0.042 0.47,0.128 0.768,0.256c0.384,0.853 0.982,1.728 1.792,2.624c0.256,0.341 0.491,0.661 0.704,0.96c0.214,0.298 0.32,0.554 0.32,0.768c0,0.725 -0.032,1.216 -0.096,1.472c-0.064,0.256 -0.234,0.426 -0.512,0.512c-0.277,0.085 -0.8,0.128 -1.568,0.128Zm-9.408,24.256c-0.128,0 -0.298,-0.043 -0.512,-0.128c-0.213,-0.086 -0.362,-0.15 -0.448,-0.192c0,-0.128 -0.053,-0.352 -0.16,-0.672c-0.106,-0.32 -0.16,-0.523 -0.16,-0.608c-0.341,-0.171 -0.512,-0.384 -0.512,-0.64c0,-0.214 0.064,-0.512 0.192,-0.896c0.555,-0.982 1.536,-3.211 2.944,-6.688c1.408,-3.478 2.198,-5.536 2.368,-6.176c0,-0.171 0.064,-0.384 0.192,-0.64c0.128,-0.256 0.278,-0.47 0.448,-0.64c0.171,-0.171 0.363,-0.256 0.576,-0.256c0.47,0 0.907,0.32 1.312,0.96c0.406,0.64 0.608,1.344 0.608,2.112c0,0.512 -0.48,1.973 -1.44,4.384c-0.96,2.41 -2.037,4.832 -3.232,7.264c-0.17,0.341 -0.416,0.832 -0.736,1.472c-0.32,0.64 -0.565,1.024 -0.736,1.152c-0.17,0.128 -0.405,0.192 -0.704,0.192Z" style="fill:#fff;"/><path d="M432.148,95.058c-0.128,0 -0.352,-0.107 -0.672,-0.32c-0.32,-0.214 -0.586,-0.427 -0.8,-0.64c-0.298,-0.299 -0.48,-0.619 -0.544,-0.96c-0.064,-0.342 -0.096,-1.131 -0.096,-2.368c0,-1.323 0.267,-2.774 0.8,-4.352c0.534,-1.579 1.483,-3.862 2.848,-6.848l2.112,-4.48c0.128,-0.299 0.427,-0.726 0.896,-1.28l0.64,0c0.299,0 0.63,0.192 0.992,0.576c0.363,0.384 0.63,0.832 0.8,1.344c0,0.682 -0.096,1.322 -0.288,1.92c-0.192,0.597 -0.693,1.429 -1.504,2.496c-0.341,0.512 -0.746,1.322 -1.216,2.432c-0.469,1.109 -0.789,2.048 -0.96,2.816c-0.128,0.213 -0.288,0.576 -0.48,1.088c-0.192,0.512 -0.416,1.045 -0.672,1.6l-0.32,1.408l4.288,-4.416c1.878,-1.878 3.403,-3.243 4.576,-4.096c1.174,-0.854 2.144,-1.28 2.912,-1.28c0.896,0 1.622,0.576 2.176,1.728c0.384,0.64 0.64,1.141 0.768,1.504c0.128,0.362 0.192,0.928 0.192,1.696c0,0.256 -0.042,0.981 -0.128,2.176l0,3.968c0.598,-0.128 1.142,-0.299 1.632,-0.512c0.491,-0.214 0.864,-0.363 1.12,-0.448c0.982,-0.427 2.07,-0.683 3.264,-0.768c-0.085,0.725 -0.405,1.514 -0.96,2.368c-0.554,0.853 -1.237,1.568 -2.048,2.144c-0.81,0.576 -1.6,0.864 -2.368,0.864c-0.597,0 -1.226,-0.278 -1.888,-0.832c-0.661,-0.555 -1.141,-1.174 -1.44,-1.856c-0.17,-0.47 -0.266,-1.046 -0.288,-1.728c-0.021,-0.683 -0.032,-1.643 -0.032,-2.88l0,-2.368c0,-0.427 -0.128,-0.64 -0.384,-0.64c-0.17,0 -0.576,0.256 -1.216,0.768c-0.853,0.768 -2.24,2.154 -4.16,4.16c-1.834,1.92 -3.424,3.402 -4.768,4.448c-1.344,1.045 -2.272,1.568 -2.784,1.568Z" style="fill:#fff;"/><path d="M519.444,70.354c-0.128,0.128 -0.256,0.192 -0.384,0.192c-0.17,0 -0.448,-0.128 -0.832,-0.384c-0.426,-0.043 -0.992,-0.416 -1.696,-1.12c-0.704,-0.704 -1.056,-1.163 -1.056,-1.376c-0.085,-0.854 0.043,-1.771 0.384,-2.752c0.342,-0.982 0.96,-1.494 1.856,-1.536c0.128,0 0.299,0.032 0.512,0.096c0.214,0.064 0.576,0.202 1.088,0.416c0.086,0.17 0.267,0.533 0.544,1.088c0.278,0.554 0.491,1.088 0.64,1.6c0.15,0.512 0.224,0.981 0.224,1.408c0,1.024 -0.426,1.813 -1.28,2.368Zm-7.232,25.536c-0.64,0 -1.205,-0.406 -1.696,-1.216c-0.49,-0.811 -0.778,-1.622 -0.864,-2.432c0.171,-1.622 0.299,-2.774 0.384,-3.456c0.342,-1.579 0.886,-3.744 1.632,-6.496c0.747,-2.752 1.206,-4.299 1.376,-4.64c0.128,-0.214 0.32,-0.32 0.576,-0.32c0.256,0 0.534,0.085 0.832,0.256c0.299,0.17 0.555,0.362 0.768,0.576c0.342,0.469 0.512,1.002 0.512,1.6c0,0.896 -0.426,2.773 -1.28,5.632c-0.597,2.133 -0.981,3.648 -1.152,4.544c-0.17,0.896 -0.234,1.856 -0.192,2.88c-0.042,0.298 -0.117,0.8 -0.224,1.504c-0.106,0.704 -0.202,1.141 -0.288,1.312c-0.085,0.17 -0.213,0.256 -0.384,0.256Z" style="fill:#fff;"/><path d="M524.82,95.762c-0.768,0.17 -1.6,-0.064 -2.496,-0.704c-0.896,-0.64 -1.429,-1.344 -1.6,-2.112c-0.042,-0.171 -0.064,-0.448 -0.064,-0.832c0,-1.579 0.608,-3.616 1.824,-6.112c1.216,-2.496 2.699,-4.8 4.448,-6.912c1.75,-2.112 3.35,-3.446 4.8,-4c0.896,-0.47 1.472,-0.704 1.728,-0.704c0.256,0 0.832,0.234 1.728,0.704c0.598,0.17 1.046,0.362 1.344,0.576c0.299,0.213 0.683,0.64 1.152,1.28c0.555,1.109 0.96,2.474 1.216,4.096c0.256,0.896 0.384,1.536 0.384,1.92c0,0.341 -0.128,0.64 -0.384,0.896c-0.042,0.042 -0.117,0.128 -0.224,0.256c-0.106,0.128 -0.16,0.224 -0.16,0.288c0,0.064 0.043,0.096 0.128,0.096c0,0.042 -0.021,0.138 -0.064,0.288c-0.042,0.149 -0.128,0.352 -0.256,0.608c-0.512,1.621 -0.768,3.008 -0.768,4.16c0,0.384 0.043,0.789 0.128,1.216c0.427,1.109 1.152,1.664 2.176,1.664c0.854,0 1.664,-0.384 2.432,-1.152c0.683,-0.47 1.184,-0.8 1.504,-0.992c0.32,-0.192 0.48,-0.139 0.48,0.16c0.043,0.042 0.128,0.106 0.256,0.192c0.128,0.085 0.256,0.128 0.384,0.128c0.299,0 0.448,0.192 0.448,0.576c0,0.384 -0.149,0.81 -0.448,1.28c-0.298,0.298 -0.533,0.554 -0.704,0.768c-0.17,0.213 -0.256,0.384 -0.256,0.512l-0.96,0.896c-0.81,0.469 -1.77,0.704 -2.88,0.704c-1.152,0 -2.069,-0.235 -2.752,-0.704c-0.597,-0.427 -1.173,-1.046 -1.728,-1.856c-0.554,-0.811 -0.917,-1.536 -1.088,-2.176l-0.32,-0.64l-1.856,1.216c-0.426,0.426 -0.917,0.864 -1.472,1.312c-0.554,0.448 -0.917,0.757 -1.088,0.928c-0.341,0.426 -0.64,0.64 -0.896,0.64l-0.64,0c0,0.298 -0.416,0.629 -1.248,0.992c-0.832,0.362 -1.568,0.544 -2.208,0.544Zm-0.64,-3.456c0.47,0 1.664,-0.672 3.584,-2.016c1.92,-1.344 3.136,-2.336 3.648,-2.976l1.856,-1.92c0.683,-0.768 1.227,-1.643 1.632,-2.624c0.406,-0.982 0.608,-1.878 0.608,-2.688c0,-0.726 -0.106,-1.238 -0.32,-1.536c-0.17,-0.512 -0.426,-0.768 -0.768,-0.768c-0.17,0 -0.661,0.149 -1.472,0.448c-0.81,0.512 -1.952,1.685 -3.424,3.52c-1.472,1.834 -2.784,3.722 -3.936,5.664c-1.152,1.941 -1.728,3.36 -1.728,4.256c0,0.128 0.043,0.256 0.128,0.384c0.086,0.128 0.15,0.213 0.192,0.256Z" style="fill:#fff;"/><text x="295.444px" y="97.874px" style="font-family:'Caveat-Regular', 'Caveat';font-size:64px;fill:#fff;">V<tspan x="324.884px 345.684px 451.476px " y="97.874px 97.874px 97.874px ">eta</tspan>r</text><path d="M393.352,163.526c-0.064,-0.032 -0.192,-0.08 -0.384,-0.144c-0.192,-0.064 -0.4,-0.08 -0.624,-0.048c-0.416,-0.064 -0.752,-0.272 -1.008,-0.624c-0.256,-0.352 -0.384,-0.736 -0.384,-1.152c0,-0.192 0.016,-0.336 0.048,-0.432c0.096,-0.096 0.176,-0.344 0.24,-0.744c0.064,-0.4 0.096,-0.76 0.096,-1.08c0.128,-0.352 0.272,-0.864 0.432,-1.536c0.192,-1.44 0.696,-3.832 1.512,-7.176c0.816,-3.344 1.336,-5.128 1.56,-5.352l-0.048,-0.528c0,-0.096 0.032,-0.288 0.096,-0.576c0.064,-0.288 0.192,-0.608 0.384,-0.96c0.128,-0.384 0.232,-0.76 0.312,-1.128c0.08,-0.368 0.12,-0.648 0.12,-0.84c0.064,-0.096 0.288,-0.672 0.672,-1.728l0.48,-1.344c0.192,-0.608 0.448,-1.328 0.768,-2.16c0.32,-0.832 0.528,-1.376 0.624,-1.632l0,-0.24c0.128,-0.16 0.48,-1.008 1.056,-2.544c0.288,-0.64 0.568,-1.304 0.84,-1.992c0.272,-0.688 0.552,-1.368 0.84,-2.04c0.096,-0.192 0.24,-0.464 0.432,-0.816c0.192,-0.352 0.288,-0.592 0.288,-0.72c0.128,-0.256 0.368,-0.384 0.72,-0.384c0.288,0 0.576,0.096 0.864,0.288c0.288,0.192 0.512,0.448 0.672,0.768l0.528,0.768l-1.632,3.504c-0.416,0.832 -0.792,1.64 -1.128,2.424c-0.336,0.784 -0.504,1.24 -0.504,1.368c-0.096,0.32 -0.32,0.976 -0.672,1.968c-0.352,0.992 -0.624,1.856 -0.816,2.592c-0.256,0.8 -0.536,1.592 -0.84,2.376c-0.304,0.784 -0.456,1.208 -0.456,1.272c0,-0.128 1.824,-0.256 5.472,-0.384c0.608,-0.032 1.736,-0.088 3.384,-0.168c1.648,-0.08 2.664,-0.168 3.048,-0.264l2.448,-0.288l1.488,-4.992c0.384,-1.568 1.008,-3.776 1.872,-6.624c0.416,-1.408 0.768,-2.312 1.056,-2.712c0.288,-0.4 0.64,-0.6 1.056,-0.6l0.048,0c0.192,0 0.424,0.064 0.696,0.192c0.272,0.128 0.456,0.304 0.552,0.528c0.384,0.32 0.576,0.688 0.576,1.104c0,0.416 -0.24,1.04 -0.72,1.872c-0.416,0.768 -0.912,2.048 -1.488,3.84c-0.096,0.416 -0.256,0.912 -0.48,1.488l0,0.192c0,0.608 -0.144,1.056 -0.432,1.344c-0.096,0.096 -0.296,0.544 -0.6,1.344c-0.304,0.8 -0.456,1.264 -0.456,1.392c0.032,0.224 0,0.504 -0.096,0.84c-0.096,0.336 -0.208,0.568 -0.336,0.696c-0.032,0.128 -0.336,1.408 -0.912,3.84c-0.576,2.432 -1.152,4.384 -1.728,5.856c0.032,0.16 -0.024,0.448 -0.168,0.864c-0.144,0.416 -0.216,0.704 -0.216,0.864c-0.48,1.536 -0.704,2.4 -0.672,2.592c-0.64,3.264 -0.96,5.008 -0.96,5.232c-0.032,0.064 -0.128,0.096 -0.288,0.096c-0.224,0 -0.624,-0.112 -1.2,-0.336c-0.416,-0.224 -0.72,-0.448 -0.912,-0.672c-0.192,-0.224 -0.288,-0.496 -0.288,-0.816c0,-0.288 0.128,-0.72 0.384,-1.296c0.128,-0.224 0.368,-1.184 0.72,-2.88l0.48,-2.064c0.192,-0.672 0.56,-2.144 1.104,-4.416c0.096,-0.416 0.24,-1.04 0.432,-1.872c0.192,-0.832 0.32,-1.28 0.384,-1.344l0,-0.48c-0.096,-0.096 -0.752,-0.144 -1.968,-0.144c-1.28,0 -2.728,0.056 -4.344,0.168c-1.616,0.112 -3,0.264 -4.152,0.456l-1.152,0.048c-0.544,0 -0.912,0.016 -1.104,0.048c-0.32,0 -0.592,0.008 -0.816,0.024c-0.224,0.016 -0.368,0.024 -0.432,0.024c-0.16,0.32 -0.592,1.8 -1.296,4.44c-0.704,2.64 -1.104,4.312 -1.2,5.016c-0.288,1.472 -0.616,3.048 -0.984,4.728c-0.368,1.68 -0.664,2.952 -0.888,3.816Z" style="fill:#fff;"/><path d="M429.88,159.014c-0.224,0.128 -0.52,0.08 -0.888,-0.144c-0.368,-0.224 -0.728,-0.56 -1.08,-1.008c-0.256,-0.416 -0.408,-0.848 -0.456,-1.296c-0.048,-0.448 -0.072,-1.376 -0.072,-2.784c0,-0.32 -0.064,-0.48 -0.192,-0.48c-0.096,0 -0.32,0.152 -0.672,0.456c-0.352,0.304 -0.784,0.712 -1.296,1.224c-0.832,0.8 -1.6,1.424 -2.304,1.872c-0.704,0.448 -1.28,0.656 -1.728,0.624c-0.352,0 -0.728,-0.24 -1.128,-0.72c-0.4,-0.48 -0.712,-1.04 -0.936,-1.68c-0.096,-0.384 -0.144,-0.832 -0.144,-1.344c0,-1.344 0.28,-2.976 0.84,-4.896c0.56,-1.92 1.216,-3.576 1.968,-4.968c0.752,-1.392 1.416,-2.088 1.992,-2.088c0.48,0 0.928,0.528 1.344,1.584c0.096,0.192 0.144,0.352 0.144,0.48c0,0.224 -0.128,0.448 -0.384,0.672c-0.48,0.608 -1.04,1.696 -1.68,3.264c-0.64,1.568 -1.144,3.024 -1.512,4.368c-0.368,1.344 -0.44,2.016 -0.216,2.016c0.448,0 0.976,-0.176 1.584,-0.528c0.608,-0.352 1.216,-0.816 1.824,-1.392c0.608,-0.608 1.152,-1.256 1.632,-1.944c0.48,-0.688 1.072,-1.624 1.776,-2.808c1.344,-2.144 2.08,-3.392 2.208,-3.744c0.48,-0.896 0.824,-1.48 1.032,-1.752c0.208,-0.272 0.472,-0.456 0.792,-0.552l0.672,0c0.192,0.032 0.416,0.176 0.672,0.432c0.224,0.096 0.36,0.2 0.408,0.312c0.048,0.112 0.072,0.264 0.072,0.456l-0.768,1.776l-0.432,1.008c-0.032,0.128 -0.208,0.496 -0.528,1.104c-0.736,1.632 -1.296,2.944 -1.68,3.936c-0.384,0.992 -0.672,2.016 -0.864,3.072c-0.032,0.16 -0.048,0.432 -0.048,0.816c0,0.96 0.096,1.632 0.288,2.016c0.288,0.576 0.576,0.992 0.864,1.248c0.16,0.128 0.24,0.256 0.24,0.384c0,0.224 -0.184,0.448 -0.552,0.672c-0.368,0.224 -0.632,0.336 -0.792,0.336Z" style="fill:#fff;"/><path d="M439.72,157.958c-1.024,-0.416 -1.744,-0.952 -2.16,-1.608c-0.416,-0.656 -0.624,-1.576 -0.624,-2.76c0,-0.576 0.048,-1.248 0.144,-2.016l0.096,-1.728c0,-0.288 -0.032,-0.512 -0.096,-0.672c-0.064,-0.16 -0.208,-0.336 -0.432,-0.528c-0.064,-0.064 -0.224,-0.224 -0.48,-0.48c-0.256,-0.256 -0.368,-0.464 -0.336,-0.624l-0.048,-0.24c0,-0.224 0.04,-0.432 0.12,-0.624c0.08,-0.192 0.168,-0.288 0.264,-0.288c0.096,0 0.224,-0.024 0.384,-0.072c0.16,-0.048 0.304,-0.056 0.432,-0.024c0.448,0 0.672,0.096 0.672,0.288c0.128,0.256 0.344,0.28 0.648,0.072c0.304,-0.208 0.6,-0.616 0.888,-1.224c0.448,-0.704 1.112,-1.448 1.992,-2.232c0.88,-0.784 1.608,-1.336 2.184,-1.656c0.224,-0.128 0.592,-0.248 1.104,-0.36c0.512,-0.112 0.96,-0.168 1.344,-0.168c0.576,0 1.08,0.128 1.512,0.384c0.432,0.256 0.872,0.624 1.32,1.104c0.608,0.448 0.912,1.152 0.912,2.112c0,0.672 -0.16,1.36 -0.48,2.064c-0.128,0.48 -0.632,1.088 -1.512,1.824c-0.88,0.736 -1.688,1.248 -2.424,1.536c-0.896,0.224 -1.92,0.336 -3.072,0.336c-0.768,0 -1.264,-0.064 -1.488,-0.192c-0.384,-0.224 -0.656,0.64 -0.816,2.592c-0.032,0.224 -0.048,0.528 -0.048,0.912c0,0.544 0.08,0.976 0.24,1.296c0.032,0.032 0.144,0.152 0.336,0.36c0.192,0.208 0.432,0.384 0.72,0.528c0.288,0.144 0.592,0.216 0.912,0.216c0.288,0 0.512,-0.032 0.672,-0.096c0.352,-0.096 0.688,-0.28 1.008,-0.552c0.32,-0.272 0.768,-0.696 1.344,-1.272c0.512,-0.512 0.88,-0.864 1.104,-1.056c0.16,-0.288 0.48,-0.432 0.96,-0.432c0.128,0 0.352,0.032 0.672,0.096c0.288,0.224 0.432,0.464 0.432,0.72c0,0.256 -0.16,0.736 -0.48,1.44c-0.16,0.32 -0.552,0.76 -1.176,1.32c-0.624,0.56 -1.176,1 -1.656,1.32c-0.992,0.544 -1.984,0.816 -2.976,0.816c-0.608,0 -1.312,-0.144 -2.112,-0.432Zm2.832,-9.744c0.32,-0.064 0.784,-0.144 1.392,-0.24c0.608,-0.096 1.112,-0.312 1.512,-0.648c0.4,-0.336 0.872,-0.92 1.416,-1.752c0.096,-0.256 0.144,-0.512 0.144,-0.768c0,-0.48 -0.096,-0.816 -0.288,-1.008c-0.224,-0.224 -0.48,-0.336 -0.768,-0.336c-0.448,0 -0.912,0.192 -1.392,0.576c-0.32,0.096 -0.792,0.448 -1.416,1.056c-0.624,0.608 -1.16,1.208 -1.608,1.8c-0.448,0.592 -0.592,0.936 -0.432,1.032c-0.064,0.096 0.096,0.168 0.48,0.216c0.384,0.048 0.704,0.072 0.96,0.072Z" style="fill:#fff;"/><path d="M452.728,156.854c-0.352,-0.192 -0.6,-0.384 -0.744,-0.576c-0.144,-0.192 -0.216,-0.464 -0.216,-0.816c0,-0.64 0.192,-1.664 0.576,-3.072c0.096,-0.8 0.2,-1.448 0.312,-1.944c0.112,-0.496 0.312,-0.984 0.6,-1.464c0.128,-0.48 0.352,-1.2 0.672,-2.16c0.704,-2.24 1.184,-3.968 1.44,-5.184c0.256,-0.704 0.48,-1.328 0.672,-1.872c0.192,-0.544 0.368,-1.04 0.528,-1.488c-0.064,0.192 0.336,-0.896 1.2,-3.264c0.256,-0.768 0.432,-1.36 0.528,-1.776c0.352,-1.44 0.752,-2.528 1.2,-3.264c0.224,-0.32 0.392,-0.592 0.504,-0.816c0.112,-0.224 0.216,-0.4 0.312,-0.528c0,-0.064 0.048,-0.12 0.144,-0.168c0.096,-0.048 0.208,-0.072 0.336,-0.072c0.384,0 0.704,0.128 0.96,0.384c0.16,-0.064 0.36,0.128 0.6,0.576c0.24,0.448 0.344,0.8 0.312,1.056c0,0.416 -0.112,0.8 -0.336,1.152c-0.128,0.128 -0.272,0.36 -0.432,0.696c-0.16,0.336 -0.304,0.616 -0.432,0.84c-0.064,0.224 -0.168,0.6 -0.312,1.128c-0.144,0.528 -0.28,0.968 -0.408,1.32c-0.16,0.384 -0.312,0.744 -0.456,1.08c-0.144,0.336 -0.264,0.632 -0.36,0.888c-0.128,0.416 -0.352,1.04 -0.672,1.872c-0.448,1.088 -0.752,1.936 -0.912,2.544c-0.064,0.192 -0.176,0.592 -0.336,1.2c-0.448,1.6 -0.88,2.768 -1.296,3.504c-0.256,0.416 -0.44,0.976 -0.552,1.68c-0.112,0.704 -0.184,1.136 -0.216,1.296c-0.48,1.44 -0.72,2.288 -0.72,2.544c-0.064,0.288 -0.176,0.848 -0.336,1.68c-0.192,1.024 -0.384,1.76 -0.576,2.208c-0.064,0.736 -0.304,1.104 -0.72,1.104c-0.256,0 -0.544,-0.096 -0.864,-0.288Z" style="fill:#fff;"/><path d="M460.12,159.542c-0.416,-0.128 -0.72,-0.368 -0.912,-0.72c-0.192,-0.352 -0.304,-0.848 -0.336,-1.488c0,-0.448 0.096,-1.128 0.288,-2.04c0.192,-0.912 0.304,-1.48 0.336,-1.704l0.048,-0.384c0.032,-0.16 0.088,-0.448 0.168,-0.864c0.08,-0.416 0.12,-0.512 0.12,-0.288l0.336,-1.296c0.224,-0.864 0.448,-1.664 0.672,-2.4c0.224,-0.736 0.384,-1.264 0.48,-1.584l0.576,-1.632c1.088,-3.136 1.984,-5.168 2.688,-6.096c0.032,-0.128 0.08,-0.248 0.144,-0.36c0.064,-0.112 0.112,-0.232 0.144,-0.36c0.032,-0.384 0.144,-0.72 0.336,-1.008c0.288,-0.48 0.528,-0.912 0.72,-1.296l0.192,-0.528c0.512,-1.088 0.96,-1.92 1.344,-2.496c0.128,-0.288 0.312,-0.624 0.552,-1.008c0.24,-0.384 0.44,-0.656 0.6,-0.816l-0.048,-0.048c0.16,-0.256 0.344,-0.416 0.552,-0.48c0.208,-0.064 0.488,-0.096 0.84,-0.096c0.416,0 0.664,0.056 0.744,0.168c0.08,0.112 0.12,0.408 0.12,0.888l0,0.432c0,0.32 -0.024,0.56 -0.072,0.72c-0.048,0.16 -0.168,0.352 -0.36,0.576l0.048,0c0,0 -0.032,0.08 -0.096,0.24c-0.064,0.16 -0.128,0.304 -0.192,0.432c-0.224,0.576 -0.384,0.896 -0.48,0.96c-0.192,0.224 -0.84,1.48 -1.944,3.768c-1.104,2.288 -1.848,3.912 -2.232,4.872l-0.24,0.72l-0.096,0.288c-0.352,0.768 -0.544,1.184 -0.576,1.248l-0.816,2.784l-0.24,1.008l-0.432,1.056l-0.288,0.912c-0.064,0.128 -0.112,0.288 -0.144,0.48c-0.032,0.192 -0.096,0.336 -0.192,0.432l-0.048,0.24c-0.384,1.76 -0.64,3.456 -0.768,5.088l-0.048,0.192c-0.064,0.544 -0.176,0.944 -0.336,1.2c-0.16,0.256 -0.384,0.384 -0.672,0.384c-0.064,0 -0.224,-0.032 -0.48,-0.096Z" style="fill:#fff;"/><path d="M497.128,157.718c-0.32,0.064 -0.608,0.096 -0.864,0.096c-0.416,0 -0.8,-0.04 -1.152,-0.12c-0.352,-0.08 -0.528,-0.184 -0.528,-0.312c0,-0.096 -0.016,-0.16 -0.048,-0.192c-0.032,-0.032 -0.096,-0.048 -0.192,-0.048c-0.032,-0.032 -0.128,-0.112 -0.288,-0.24c-0.16,-0.128 -0.352,-0.24 -0.576,-0.336c-0.288,-0.448 -0.432,-0.928 -0.432,-1.44c0,-0.544 0.144,-1.392 0.432,-2.544c0.096,-1.024 0.576,-2.304 1.44,-3.84c0.864,-1.536 1.88,-2.992 3.048,-4.368c1.168,-1.376 2.216,-2.336 3.144,-2.88c0.48,-0.48 1.088,-0.72 1.824,-0.72c0.576,0 1.12,0.144 1.632,0.432c0.448,0.256 0.92,0.688 1.416,1.296c0.496,0.608 0.888,1.232 1.176,1.872c0.128,0.48 0.192,0.944 0.192,1.392c0,0.48 -0.064,1.232 -0.192,2.256c-0.16,0.576 -0.296,1.28 -0.408,2.112c-0.112,0.832 -0.168,1.552 -0.168,2.16c-0.064,0.448 -0.032,0.808 0.096,1.08c0.128,0.272 0.304,0.408 0.528,0.408c0.16,0 0.336,-0.048 0.528,-0.144c0.32,-0.16 0.672,-0.24 1.056,-0.24c0.352,0 0.64,0.096 0.864,0.288c0.224,0.192 0.336,0.48 0.336,0.864c0,0.576 -0.392,1.152 -1.176,1.728c-0.784,0.576 -1.528,0.864 -2.232,0.864c-0.48,0 -0.92,-0.376 -1.32,-1.128c-0.4,-0.752 -0.792,-1.72 -1.176,-2.904l-0.288,-1.104l-2.064,1.968l-1.104,1.104c-0.512,0.512 -0.8,0.816 -0.864,0.912c-0.352,0.608 -1.232,1.184 -2.64,1.728Zm0.144,-2.832c0.768,-0.448 1.712,-1.232 2.832,-2.352c1.12,-1.12 2.048,-2.192 2.784,-3.216c0.992,-1.312 1.616,-2.608 1.872,-3.888c-0.128,-0.384 -0.336,-0.768 -0.624,-1.152c-0.288,-0.384 -0.544,-0.592 -0.768,-0.624c-0.64,0 -1.312,0.368 -2.016,1.104c-0.704,0.736 -1.536,1.76 -2.496,3.072l-1.584,2.352c-0.192,0.256 -0.528,0.936 -1.008,2.04c-0.48,1.104 -0.72,1.768 -0.72,1.992c0,0.704 0.208,1.056 0.624,1.056c0.32,0 0.688,-0.128 1.104,-0.384Z" style="fill:#fff;"/><path d="M516.136,158.726c-1.088,0 -2.032,-0.224 -2.832,-0.672c-0.8,-0.448 -1.328,-1.056 -1.584,-1.824c-0.224,-0.576 -0.336,-0.896 -0.336,-0.96c0,-0.192 0.112,-0.336 0.336,-0.432c0.224,0 0.488,0.096 0.792,0.288c0.304,0.192 0.552,0.32 0.744,0.384c0.48,0.448 1.136,0.672 1.968,0.672c0.64,0 1.224,-0.128 1.752,-0.384c0.528,-0.256 0.824,-0.56 0.888,-0.912c0,-0.16 -0.16,-0.72 -0.48,-1.68c-0.8,-1.152 -1.416,-2.328 -1.848,-3.528c-0.432,-1.2 -0.648,-2.216 -0.648,-3.048c0,-0.608 0.176,-1.232 0.528,-1.872c0.352,-0.64 0.832,-1.184 1.44,-1.632c0.8,-0.832 1.768,-1.584 2.904,-2.256c1.136,-0.672 2.168,-1.136 3.096,-1.392c0.384,0 0.856,0.048 1.416,0.144c0.56,0.096 0.952,0.208 1.176,0.336c0.352,0.128 0.688,0.48 1.008,1.056c0.32,0.576 0.48,1.12 0.48,1.632c0,0.512 -0.272,1.216 -0.816,2.112c-0.064,0.224 -0.192,0.528 -0.384,0.912c-0.192,0.384 -0.288,0.624 -0.288,0.72c-0.128,0.32 -0.336,0.48 -0.624,0.48c-0.288,0 -0.568,-0.136 -0.84,-0.408c-0.272,-0.272 -0.488,-0.6 -0.648,-0.984c-0.096,-0.384 -0.144,-0.72 -0.144,-1.008c0,-0.384 0.128,-0.768 0.384,-1.152c0.352,-0.352 0.528,-0.592 0.528,-0.72c0,-0.128 -0.176,-0.192 -0.528,-0.192c-0.384,0 -1.12,0.304 -2.208,0.912c-1.088,0.608 -1.952,1.248 -2.592,1.92c-0.576,0.544 -0.928,0.952 -1.056,1.224c-0.128,0.272 -0.192,0.68 -0.192,1.224c0,0.48 0.104,1.048 0.312,1.704c0.208,0.656 0.424,1.096 0.648,1.32c0.064,0.128 0.2,0.4 0.408,0.816c0.208,0.416 0.456,0.816 0.744,1.2c0.64,1.44 0.96,2.56 0.96,3.36c0,0.928 -0.36,1.6 -1.08,2.016c-0.72,0.416 -1.848,0.624 -3.384,0.624Z" style="fill:#fff;"/><text x="314.728px" y="159.11px" style="font-family:'Caveat-Regular', 'Caveat';font-size:48px;fill:#fff;">M<tspan x="349.768px " y="159.11px ">i</tspan>s <tspan x="463.384px " y="159.11px ">i</tspan>t</text></g></g></svg>