<?xml version="1.0" encoding="UTF-8" standalone="no"?><!DOCTYPE svg PUBLIC "-//W3C//DTD SVG 1.1//EN" "http://www.w3.org/Graphics/SVG/1.1/DTD/svg11.dtd"><svg width="100%" height="100%" viewBox="0 0 256 219" version="1.1" xmlns="http://www.w3.org/2000/svg" xmlns:xlink="http://www.w3.org/1999/xlink" xml:space="preserve" xmlns:serif="http://www.serif.com/" style="fill-rule:evenodd;clip-rule:evenodd;stroke-linejoin:round;stroke-miterlimit:2;"><g id="Final"><g><path d="M53.973,194.591l42.081,-16.218c0,0 10.868,6.944 15.519,9.916c1.304,0.833 2.924,1.009 4.377,0.474c0,0 0,0 0.001,0c2.186,-0.806 3.52,-3.021 3.207,-5.33c-1.621,-11.992 -6.373,-47.148 -6.373,-47.148c0,0 30.063,63.985 36.978,78.703c0.796,1.693 2.754,2.497 4.51,1.85c0.001,0 0.002,-0.001 0.002,-0.001c1.324,-0.487 2.166,-1.791 2.066,-3.199c-0.785,-10.983 -4.024,-56.313 -4.024,-56.313l40.413,-14.077c6.304,10.979 9.909,23.702 9.909,37.259c0,8.184 -1.339,16.278 -3.923,23.974c-2.763,8.09 -10.364,13.527 -18.913,13.526c-24.864,0 -79.464,0 -104.329,-0.01c-8.543,0 -16.141,-5.434 -18.902,-13.52c-1.09,-3.232 -1.958,-6.535 -2.599,-9.886Zm-0.878,-5.825c-0.303,-2.735 -0.456,-5.491 -0.456,-8.259c0,-41.393 33.606,-75 75,-75c25.915,0 48.778,13.173 62.252,33.182l-44.635,15.642l2.951,40.887c0,0 -30.708,-65.476 -37.953,-80.924c-0.859,-1.831 -2.976,-2.701 -4.874,-2.002c-0.001,0 -0.001,0.001 -0.002,0.001c-1.632,0.601 -2.627,2.256 -2.391,3.98c1.78,13.015 8.843,64.642 8.843,64.642l-14.455,-9.161l-44.28,17.012Z" style="fill:#fff;"/></g><g><path id="central" d="M127.639,89.469c0,0 44.391,-31.554 44.391,-45.078c0,-24.5 -19.891,-44.391 -44.391,-44.391c-24.5,0 -44.392,19.891 -44.392,44.391c0,13.524 44.392,45.078 44.392,45.078Z" style="fill:#fff;"/><path id="izquierda" d="M72.072,101.862c-5.249,-2.282 8.579,-50.754 -0.458,-59.792c-16.374,-16.373 -42.96,-16.373 -59.334,0c-16.373,16.374 -16.373,42.96 0,59.334c9.038,9.037 56.026,4.109 59.792,0.458Z" style="fill:#fff;"/><path id="derecha" d="M183.172,101.862c3.766,3.651 50.754,8.579 59.792,-0.458c16.374,-16.374 16.374,-42.96 0,-59.334c-16.373,-16.373 -42.96,-16.373 -59.333,0c-9.038,9.038 4.79,57.51 -0.459,59.792Z" style="fill:#fff;"/></g></g></svg>