<?xml version="1.0" encoding="UTF-8" standalone="no"?><!DOCTYPE svg PUBLIC "-//W3C//DTD SVG 1.1//EN" "http://www.w3.org/Graphics/SVG/1.1/DTD/svg11.dtd"><svg width="100%" height="100%" viewBox="0 0 608 219" version="1.1" xmlns="http://www.w3.org/2000/svg" xmlns:xlink="http://www.w3.org/1999/xlink" xml:space="preserve" xmlns:serif="http://www.serif.com/" style="fill-rule:evenodd;clip-rule:evenodd;stroke-linejoin:round;stroke-miterlimit:2;"><g><g id="Final"><g><path d="M53.973,194.591l42.081,-16.218c0,0 10.868,6.944 15.519,9.916c1.304,0.833 2.924,1.009 4.377,0.474c0,0 0,0 0.001,0c2.186,-0.806 3.52,-3.021 3.207,-5.33c-1.621,-11.992 -6.373,-47.148 -6.373,-47.148c0,0 30.063,63.985 36.978,78.703c0.796,1.693 2.754,2.497 4.51,1.85c0.001,0 0.002,-0.001 0.002,-0.001c1.324,-0.487 2.166,-1.791 2.066,-3.199c-0.785,-10.983 -4.024,-56.313 -4.024,-56.313l40.413,-14.077c6.304,10.979 9.909,23.702 9.909,37.259c0,8.184 -1.339,16.278 -3.923,23.974c-2.763,8.09 -10.364,13.527 -18.913,13.526c-24.864,0 -79.464,0 -104.329,-0.01c-8.543,0 -16.141,-5.434 -18.902,-13.52c-1.09,-3.232 -1.958,-6.535 -2.599,-9.886Zm-0.878,-5.825c-0.303,-2.735 -0.456,-5.491 -0.456,-8.259c0,-41.393 33.606,-75 75,-75c25.915,0 48.778,13.173 62.252,33.182l-44.635,15.642l2.951,40.887c0,0 -30.708,-65.476 -37.953,-80.924c-0.859,-1.831 -2.976,-2.701 -4.874,-2.002c-0.001,0 -0.001,0.001 -0.002,0.001c-1.632,0.601 -2.627,2.256 -2.391,3.98c1.78,13.015 8.843,64.642 8.843,64.642l-14.455,-9.161l-44.28,17.012Z" style="fill:#fff;"/></g><g><path id="central" d="M127.639,89.469c0,0 44.391,-31.554 44.391,-45.078c0,-24.5 -19.891,-44.391 -44.391,-44.391c-24.5,0 -44.392,19.891 -44.392,44.391c0,13.524 44.392,45.078 44.392,45.078Z" style="fill:#fff;"/><path id="izquierda" d="M72.072,101.862c-5.249,-2.282 8.579,-50.754 -0.458,-59.792c-16.374,-16.373 -42.96,-16.373 -59.334,0c-16.373,16.374 -16.373,42.96 0,59.334c9.038,9.037 56.026,4.109 59.792,0.458Z" style="fill:#fff;"/><path id="derecha" d="M183.172,101.862c3.766,3.651 50.754,8.579 59.792,-0.458c16.374,-16.374 16.374,-42.96 0,-59.334c-16.373,-16.373 -42.96,-16.373 -59.333,0c-9.038,9.038 4.79,57.51 -0.459,59.792Z" style="fill:#fff;"/></g></g><g id="Letras"><path d="M398.21,109.475c-2.315,0 -4.226,-0.862 -5.733,-2.584c-1.508,-1.723 -2.262,-3.877 -2.262,-6.461c0,-2.584 0.579,-5.424 1.737,-8.519c1.157,-3.096 2.651,-5.882 4.481,-8.358c1.831,-2.477 3.688,-4.146 5.572,-5.007c1.077,-0.592 2.289,-0.888 3.634,-0.888c1.023,0 2.181,0.296 3.473,0.888c0.915,0.377 1.615,0.835 2.099,1.373c0.485,0.538 0.916,1.373 1.292,2.503c0.162,0.969 0.243,1.642 0.243,2.019c0,0.323 -0.135,1.023 -0.404,2.1c-0.646,1.992 -1.494,3.674 -2.544,5.047c-1.05,1.373 -2.409,2.544 -4.078,3.513c-0.861,0.538 -1.938,0.807 -3.23,0.807c-1.131,0 -2.194,-0.202 -3.19,-0.605c-0.996,-0.404 -1.763,-1.01 -2.301,-1.817l-0.566,-0.646l-0.242,0.646c-1.13,2.907 -1.696,5.383 -1.696,7.429c0,1.4 0.27,2.53 0.808,3.392c0.377,0.592 1.292,0.888 2.746,0.888c1.076,0 1.857,-0.108 2.341,-0.323c0.808,-0.269 1.521,-0.606 2.14,-1.01c0.619,-0.403 1.225,-0.821 1.817,-1.251l0.323,-0.162l-0.08,0c0.646,-0.323 1.184,-0.619 1.615,-0.888c0.43,-0.269 0.726,-0.458 0.888,-0.565c0.108,0 0.215,-0.027 0.323,-0.081c0.108,-0.054 0.215,-0.162 0.323,-0.323c0.485,-0.215 1.05,-0.135 1.696,0.242c0.646,0.377 0.969,0.862 0.969,1.454c-0.108,0.43 -0.592,1.13 -1.454,2.099c-0.861,0.969 -1.507,1.481 -1.938,1.535c-0.054,0 -0.242,0.08 -0.565,0.242c-0.323,0.161 -0.538,0.296 -0.646,0.404l0.081,0c-0.485,0.646 -0.969,0.969 -1.454,0.969l-0.646,0c-0.215,0.43 -0.929,0.861 -2.14,1.292c-1.211,0.43 -2.355,0.646 -3.432,0.646Zm3.634,-17.766c1.615,0 3.096,-0.915 4.441,-2.746c1.292,-1.722 1.939,-3.445 1.939,-5.168c0,-0.915 -0.189,-1.561 -0.566,-1.938c-0.323,-0.161 -0.619,-0.242 -0.888,-0.242c-0.269,0 -0.727,0.081 -1.373,0.242c-0.7,0.162 -1.776,0.902 -3.23,2.221c-1.454,1.319 -2.53,2.49 -3.23,3.513l-1.05,1.695c0.431,-0.161 0.848,-0.255 1.252,-0.282c0.403,-0.027 0.632,0.013 0.686,0.121c0,0.754 0.189,1.373 0.565,1.857c0.377,0.485 0.862,0.727 1.454,0.727Z" style="fill:#fff;"/><path d="M421.467,106.729c-0.323,0 -0.78,-0.108 -1.373,-0.323c-0.592,-0.215 -0.969,-0.404 -1.13,-0.565c-0.539,-0.538 -0.808,-1.158 -0.808,-1.857c0,-1.185 0.592,-2.612 1.777,-4.28c0.323,-0.646 1.13,-2.881 2.422,-6.703l1.615,-4.441c0.108,-0.916 0.054,-1.575 -0.161,-1.979c-0.215,-0.404 -0.673,-0.632 -1.373,-0.686l-0.484,0c-0.485,0 -0.808,-0.095 -0.969,-0.283c-0.162,-0.188 -0.243,-0.686 -0.243,-1.494c0.054,-0.646 0.216,-1.13 0.485,-1.453c0.269,-0.323 0.727,-0.7 1.373,-1.131c0.861,-0.431 1.749,-0.646 2.665,-0.646c0.861,0 1.507,0.188 1.938,0.565c0.323,0.216 0.551,0.687 0.686,1.413c0.135,0.727 0.215,1.481 0.242,2.262c0.027,0.78 0.068,1.332 0.121,1.655c0.27,-0.269 0.929,-0.821 1.979,-1.655c1.05,-0.835 1.951,-1.629 2.705,-2.383c0.915,-0.646 1.965,-1.265 3.15,-1.857c1.184,-0.592 2.018,-0.888 2.503,-0.888c0.592,0 1.184,0.148 1.776,0.444c0.593,0.296 0.996,0.659 1.212,1.09c0.484,0.861 0.727,1.642 0.727,2.342c0,0.754 -0.297,1.507 -0.889,2.261c-0.484,0.592 -1.103,1.05 -1.857,1.373c-0.754,0.323 -1.292,0.484 -1.615,0.484c-0.323,0 -0.727,-0.242 -1.211,-0.726c-0.485,-0.485 -0.754,-0.889 -0.808,-1.212c0,-0.215 -0.686,0.202 -2.059,1.252c-1.373,1.05 -2.436,1.951 -3.19,2.705c-0.861,1.023 -1.736,2.369 -2.624,4.038c-0.889,1.669 -2.194,4.199 -3.917,7.591c-0.162,0.377 -0.538,1.292 -1.131,2.745c-0.269,0.862 -0.511,1.467 -0.726,1.817c-0.216,0.35 -0.485,0.525 -0.808,0.525Z" style="fill:#fff;"/><path d="M459.179,74.67c-1.023,0 -2.059,-0.552 -3.109,-1.656c-1.05,-1.103 -1.575,-2.247 -1.575,-3.432c0,-0.269 0.323,-0.888 0.969,-1.857c0.646,-0.969 0.969,-1.507 0.969,-1.615c0.377,0 0.7,0.027 0.97,0.081c0.269,0.054 0.592,0.161 0.969,0.323c0.484,1.077 1.238,2.18 2.261,3.311c0.323,0.43 0.619,0.834 0.888,1.211c0.269,0.377 0.404,0.7 0.404,0.969c0,0.915 -0.041,1.534 -0.121,1.857c-0.081,0.323 -0.296,0.539 -0.646,0.646c-0.35,0.108 -1.01,0.162 -1.979,0.162Zm-11.871,30.606c-0.161,0 -0.377,-0.054 -0.646,-0.162c-0.269,-0.108 -0.457,-0.188 -0.565,-0.242c0,-0.162 -0.067,-0.444 -0.202,-0.848c-0.134,-0.404 -0.202,-0.66 -0.202,-0.767c-0.43,-0.216 -0.646,-0.485 -0.646,-0.808c0,-0.269 0.081,-0.646 0.242,-1.13c0.7,-1.239 1.939,-4.051 3.715,-8.439c1.777,-4.388 2.773,-6.985 2.988,-7.793c0,-0.215 0.081,-0.484 0.242,-0.807c0.162,-0.323 0.35,-0.593 0.566,-0.808c0.215,-0.215 0.457,-0.323 0.726,-0.323c0.593,0 1.144,0.404 1.656,1.211c0.511,0.808 0.767,1.696 0.767,2.665c0,0.646 -0.606,2.49 -1.817,5.532c-1.211,3.042 -2.571,6.097 -4.078,9.165c-0.215,0.431 -0.525,1.05 -0.929,1.858c-0.403,0.807 -0.713,1.292 -0.928,1.453c-0.216,0.162 -0.512,0.243 -0.889,0.243Z" style="fill:#fff;"/><path d="M464.751,105.679c-0.161,0 -0.444,-0.134 -0.848,-0.403c-0.404,-0.27 -0.74,-0.539 -1.009,-0.808c-0.377,-0.377 -0.606,-0.781 -0.687,-1.211c-0.08,-0.431 -0.121,-1.427 -0.121,-2.988c0,-1.669 0.337,-3.499 1.01,-5.491c0.673,-1.992 1.87,-4.873 3.593,-8.641l2.665,-5.653c0.162,-0.377 0.538,-0.915 1.131,-1.615l0.807,0c0.377,0 0.794,0.242 1.252,0.727c0.457,0.484 0.794,1.05 1.009,1.696c0,0.861 -0.121,1.669 -0.363,2.422c-0.242,0.754 -0.875,1.804 -1.898,3.15c-0.431,0.646 -0.942,1.669 -1.534,3.068c-0.592,1.4 -0.996,2.585 -1.211,3.554c-0.162,0.269 -0.364,0.726 -0.606,1.372c-0.242,0.646 -0.525,1.319 -0.848,2.019l-0.404,1.777l5.411,-5.572c2.368,-2.369 4.293,-4.092 5.774,-5.168c1.48,-1.077 2.705,-1.616 3.674,-1.616c1.13,0 2.046,0.727 2.746,2.181c0.484,0.807 0.807,1.44 0.969,1.898c0.161,0.457 0.242,1.17 0.242,2.14c0,0.323 -0.054,1.238 -0.162,2.745l0,5.007c0.754,-0.162 1.44,-0.377 2.06,-0.646c0.619,-0.269 1.09,-0.458 1.413,-0.565c1.238,-0.539 2.611,-0.862 4.118,-0.969c-0.108,0.915 -0.511,1.911 -1.211,2.987c-0.7,1.077 -1.561,1.979 -2.584,2.706c-1.023,0.726 -2.019,1.09 -2.988,1.09c-0.754,0 -1.548,-0.35 -2.382,-1.05c-0.835,-0.7 -1.441,-1.48 -1.817,-2.342c-0.216,-0.592 -0.337,-1.319 -0.364,-2.18c-0.027,-0.862 -0.04,-2.073 -0.04,-3.634l0,-2.988c0,-0.538 -0.162,-0.808 -0.485,-0.808c-0.215,0 -0.726,0.323 -1.534,0.97c-1.077,0.969 -2.826,2.718 -5.249,5.249c-2.315,2.422 -4.32,4.293 -6.016,5.612c-1.696,1.319 -2.867,1.978 -3.513,1.978Z" style="fill:#fff;"/><path d="M574.899,74.508c-0.161,0.162 -0.323,0.243 -0.484,0.243c-0.216,0 -0.566,-0.162 -1.05,-0.485c-0.539,-0.054 -1.252,-0.525 -2.14,-1.413c-0.888,-0.888 -1.333,-1.467 -1.333,-1.736c-0.107,-1.077 0.054,-2.234 0.485,-3.473c0.431,-1.238 1.211,-1.884 2.342,-1.938c0.161,0 0.377,0.041 0.646,0.121c0.269,0.081 0.727,0.256 1.373,0.525c0.107,0.216 0.336,0.673 0.686,1.373c0.35,0.7 0.619,1.373 0.808,2.019c0.188,0.646 0.282,1.238 0.282,1.777c0,1.292 -0.538,2.288 -1.615,2.987Zm-9.125,32.221c-0.808,0 -1.521,-0.511 -2.14,-1.534c-0.619,-1.023 -0.982,-2.046 -1.09,-3.069c0.215,-2.046 0.377,-3.499 0.484,-4.361c0.431,-1.991 1.117,-4.724 2.06,-8.196c0.942,-3.472 1.52,-5.424 1.736,-5.855c0.161,-0.269 0.404,-0.403 0.727,-0.403c0.323,0 0.673,0.107 1.049,0.323c0.377,0.215 0.7,0.457 0.969,0.726c0.431,0.593 0.646,1.266 0.646,2.019c0,1.131 -0.538,3.5 -1.615,7.107c-0.753,2.691 -1.238,4.603 -1.453,5.733c-0.216,1.131 -0.296,2.342 -0.242,3.634c-0.054,0.377 -0.149,1.009 -0.283,1.898c-0.135,0.888 -0.256,1.44 -0.363,1.655c-0.108,0.215 -0.27,0.323 -0.485,0.323Z" style="fill:#fff;"/><path d="M581.682,106.568c-0.969,0.215 -2.018,-0.081 -3.149,-0.889c-1.13,-0.807 -1.803,-1.695 -2.019,-2.665c-0.054,-0.215 -0.081,-0.565 -0.081,-1.049c0,-1.992 0.768,-4.563 2.302,-7.712c1.534,-3.15 3.405,-6.057 5.612,-8.722c2.208,-2.665 4.226,-4.347 6.057,-5.047c1.13,-0.592 1.857,-0.888 2.18,-0.888c0.323,0 1.05,0.296 2.181,0.888c0.753,0.216 1.319,0.458 1.695,0.727c0.377,0.269 0.862,0.808 1.454,1.615c0.7,1.4 1.211,3.123 1.534,5.168c0.323,1.131 0.485,1.938 0.485,2.423c0,0.431 -0.162,0.807 -0.485,1.13c-0.054,0.054 -0.148,0.162 -0.282,0.323c-0.135,0.162 -0.202,0.283 -0.202,0.364c0,0.081 0.054,0.121 0.161,0.121c0,0.054 -0.027,0.175 -0.08,0.363c-0.054,0.189 -0.162,0.445 -0.323,0.768c-0.647,2.045 -0.97,3.795 -0.97,5.249c0,0.484 0.054,0.995 0.162,1.534c0.538,1.4 1.454,2.099 2.746,2.099c1.076,0 2.099,-0.484 3.068,-1.453c0.862,-0.592 1.494,-1.01 1.898,-1.252c0.404,-0.242 0.606,-0.175 0.606,0.202c0.053,0.054 0.161,0.135 0.323,0.242c0.161,0.108 0.323,0.162 0.484,0.162c0.377,0 0.565,0.242 0.565,0.727c0,0.484 -0.188,1.023 -0.565,1.615c-0.377,0.377 -0.673,0.7 -0.888,0.969c-0.216,0.269 -0.323,0.484 -0.323,0.646l-1.211,1.13c-1.023,0.593 -2.235,0.889 -3.634,0.889c-1.454,0 -2.611,-0.296 -3.473,-0.889c-0.754,-0.538 -1.48,-1.319 -2.18,-2.342c-0.7,-1.022 -1.158,-1.938 -1.373,-2.745l-0.404,-0.808l-2.342,1.535c-0.538,0.538 -1.157,1.09 -1.857,1.655c-0.7,0.565 -1.157,0.956 -1.373,1.171c-0.43,0.538 -0.807,0.808 -1.13,0.808l-0.808,0c0,0.376 -0.525,0.794 -1.575,1.251c-1.049,0.458 -1.978,0.687 -2.786,0.687Zm-0.807,-4.361c0.592,0 2.1,-0.848 4.522,-2.544c2.423,-1.696 3.957,-2.947 4.603,-3.755l2.342,-2.422c0.861,-0.969 1.548,-2.073 2.059,-3.311c0.512,-1.239 0.767,-2.369 0.767,-3.392c0,-0.915 -0.134,-1.561 -0.403,-1.938c-0.216,-0.646 -0.539,-0.969 -0.969,-0.969c-0.216,0 -0.835,0.188 -1.858,0.565c-1.023,0.646 -2.463,2.127 -4.32,4.442c-1.857,2.315 -3.513,4.697 -4.966,7.146c-1.454,2.45 -2.181,4.24 -2.181,5.37c0,0.162 0.054,0.323 0.162,0.485c0.107,0.161 0.188,0.269 0.242,0.323Z" style="fill:#fff;"/><text x="292.261px" y="109.233px" style="font-family:'Caveat-Regular', 'Caveat';font-size:80.754px;fill:#fff;">V<tspan x="329.408px 355.653px 489.139px " y="109.233px 109.233px 109.233px ">eta</tspan>r</text><path d="M415.799,192.071c-0.081,-0.04 -0.242,-0.101 -0.485,-0.181c-0.242,-0.081 -0.504,-0.101 -0.787,-0.061c-0.525,-0.081 -0.949,-0.343 -1.272,-0.787c-0.323,-0.445 -0.484,-0.929 -0.484,-1.454c0,-0.242 0.02,-0.424 0.06,-0.545c0.121,-0.121 0.222,-0.434 0.303,-0.939c0.081,-0.505 0.121,-0.959 0.121,-1.363c0.162,-0.444 0.343,-1.09 0.545,-1.938c0.243,-1.817 0.879,-4.835 1.908,-9.054c1.03,-4.22 1.686,-6.471 1.969,-6.753l-0.061,-0.666c0,-0.122 0.04,-0.364 0.121,-0.727c0.081,-0.364 0.242,-0.767 0.485,-1.211c0.161,-0.485 0.292,-0.959 0.393,-1.424c0.101,-0.464 0.152,-0.817 0.152,-1.06c0.08,-0.121 0.363,-0.848 0.848,-2.18l0.605,-1.696c0.243,-0.767 0.566,-1.675 0.969,-2.725c0.404,-1.05 0.667,-1.736 0.788,-2.059l0,-0.303c0.161,-0.202 0.605,-1.272 1.332,-3.21c0.363,-0.808 0.717,-1.646 1.06,-2.514c0.343,-0.868 0.696,-1.726 1.06,-2.574c0.121,-0.242 0.303,-0.585 0.545,-1.029c0.242,-0.445 0.363,-0.747 0.363,-0.909c0.162,-0.323 0.465,-0.484 0.909,-0.484c0.363,0 0.727,0.121 1.09,0.363c0.363,0.242 0.646,0.565 0.848,0.969l0.666,0.969l-2.059,4.421c-0.525,1.05 -0.999,2.07 -1.423,3.059c-0.424,0.989 -0.636,1.565 -0.636,1.726c-0.121,0.404 -0.404,1.232 -0.848,2.483c-0.444,1.252 -0.788,2.342 -1.03,3.271c-0.323,1.009 -0.676,2.008 -1.06,2.998c-0.383,0.989 -0.575,1.524 -0.575,1.605c0,-0.162 2.301,-0.323 6.904,-0.485c0.768,-0.04 2.191,-0.111 4.27,-0.212c2.08,-0.101 3.362,-0.212 3.846,-0.333l3.089,-0.363l1.877,-6.299c0.485,-1.979 1.272,-4.765 2.363,-8.358c0.524,-1.777 0.969,-2.917 1.332,-3.422c0.363,-0.505 0.807,-0.757 1.332,-0.757l0.061,0c0.242,0 0.535,0.081 0.878,0.242c0.343,0.162 0.576,0.384 0.697,0.666c0.484,0.404 0.726,0.868 0.726,1.393c0,0.525 -0.302,1.313 -0.908,2.362c-0.525,0.969 -1.151,2.585 -1.878,4.846c-0.121,0.525 -0.323,1.15 -0.605,1.877l0,0.242c0,0.768 -0.182,1.333 -0.545,1.696c-0.121,0.121 -0.374,0.687 -0.757,1.696c-0.384,1.01 -0.576,1.595 -0.576,1.756c0.041,0.283 0,0.636 -0.121,1.06c-0.121,0.424 -0.262,0.717 -0.424,0.879c-0.04,0.161 -0.424,1.776 -1.151,4.845c-0.726,3.068 -1.453,5.531 -2.18,7.389c0.04,0.202 -0.03,0.565 -0.212,1.09c-0.182,0.525 -0.272,0.888 -0.272,1.09c-0.606,1.938 -0.889,3.028 -0.848,3.271c-0.808,4.118 -1.212,6.319 -1.212,6.601c-0.04,0.081 -0.161,0.121 -0.363,0.121c-0.283,0 -0.787,-0.141 -1.514,-0.424c-0.525,-0.282 -0.909,-0.565 -1.151,-0.847c-0.242,-0.283 -0.363,-0.626 -0.363,-1.03c0,-0.363 0.161,-0.909 0.484,-1.635c0.162,-0.283 0.465,-1.494 0.909,-3.634l0.605,-2.605c0.243,-0.848 0.707,-2.705 1.393,-5.572c0.121,-0.524 0.303,-1.312 0.545,-2.362c0.243,-1.049 0.404,-1.615 0.485,-1.695l0,-0.606c-0.121,-0.121 -0.949,-0.182 -2.483,-0.182c-1.615,0 -3.442,0.071 -5.481,0.212c-2.039,0.141 -3.786,0.333 -5.239,0.576l-1.454,0.06c-0.686,0 -1.151,0.02 -1.393,0.061c-0.404,0 -0.747,0.01 -1.029,0.03c-0.283,0.02 -0.465,0.03 -0.546,0.03c-0.201,0.404 -0.747,2.271 -1.635,5.603c-0.888,3.331 -1.393,5.44 -1.514,6.329c-0.363,1.857 -0.777,3.845 -1.242,5.965c-0.464,2.12 -0.837,3.725 -1.12,4.815Z" style="fill:#fff;"/><path d="M461.889,186.378c-0.282,0.162 -0.656,0.101 -1.12,-0.182c-0.465,-0.282 -0.919,-0.706 -1.363,-1.271c-0.323,-0.525 -0.515,-1.07 -0.575,-1.636c-0.061,-0.565 -0.091,-1.736 -0.091,-3.513c0,-0.403 -0.081,-0.605 -0.242,-0.605c-0.122,0 -0.404,0.192 -0.848,0.575c-0.445,0.384 -0.99,0.899 -1.636,1.545c-1.049,1.009 -2.018,1.796 -2.907,2.362c-0.888,0.565 -1.615,0.827 -2.18,0.787c-0.444,0 -0.919,-0.303 -1.423,-0.909c-0.505,-0.605 -0.899,-1.312 -1.181,-2.119c-0.122,-0.485 -0.182,-1.05 -0.182,-1.696c0,-1.696 0.353,-3.755 1.06,-6.178c0.706,-2.422 1.534,-4.512 2.483,-6.268c0.949,-1.757 1.787,-2.635 2.513,-2.635c0.606,0 1.171,0.666 1.696,1.999c0.121,0.242 0.182,0.444 0.182,0.605c0,0.283 -0.162,0.566 -0.485,0.848c-0.605,0.768 -1.312,2.14 -2.119,4.119c-0.808,1.978 -1.444,3.815 -1.908,5.511c-0.465,1.696 -0.555,2.544 -0.273,2.544c0.566,0 1.232,-0.222 1.999,-0.666c0.767,-0.444 1.534,-1.03 2.301,-1.757c0.768,-0.767 1.454,-1.584 2.06,-2.453c0.605,-0.868 1.352,-2.049 2.241,-3.543c1.695,-2.705 2.624,-4.28 2.786,-4.724c0.605,-1.13 1.039,-1.867 1.302,-2.21c0.262,-0.344 0.595,-0.576 0.999,-0.697l0.848,0c0.242,0.041 0.525,0.222 0.848,0.545c0.282,0.121 0.454,0.253 0.515,0.394c0.06,0.141 0.09,0.333 0.09,0.575l-0.969,2.241l-0.545,1.272c-0.04,0.162 -0.262,0.626 -0.666,1.393c-0.929,2.059 -1.635,3.715 -2.12,4.966c-0.484,1.252 -0.848,2.544 -1.09,3.877c-0.04,0.202 -0.06,0.545 -0.06,1.029c0,1.212 0.121,2.059 0.363,2.544c0.363,0.727 0.727,1.252 1.09,1.575c0.202,0.161 0.303,0.323 0.303,0.484c0,0.283 -0.232,0.565 -0.696,0.848c-0.465,0.283 -0.798,0.424 -1,0.424Z" style="fill:#fff;"/><path d="M474.305,185.046c-1.292,-0.525 -2.2,-1.202 -2.725,-2.029c-0.525,-0.828 -0.788,-1.989 -0.788,-3.483c0,-0.727 0.061,-1.575 0.182,-2.544l0.121,-2.18c0,-0.363 -0.04,-0.646 -0.121,-0.848c-0.081,-0.202 -0.262,-0.424 -0.545,-0.666c-0.081,-0.081 -0.283,-0.283 -0.606,-0.606c-0.323,-0.323 -0.464,-0.585 -0.424,-0.787l-0.06,-0.303c0,-0.282 0.05,-0.545 0.151,-0.787c0.101,-0.242 0.212,-0.364 0.333,-0.364c0.121,0 0.283,-0.03 0.485,-0.09c0.202,-0.061 0.383,-0.071 0.545,-0.031c0.565,0 0.848,0.121 0.848,0.364c0.161,0.323 0.434,0.353 0.817,0.091c0.384,-0.263 0.757,-0.778 1.121,-1.545c0.565,-0.888 1.403,-1.827 2.513,-2.816c1.111,-0.989 2.029,-1.686 2.756,-2.09c0.283,-0.161 0.747,-0.313 1.393,-0.454c0.646,-0.141 1.211,-0.212 1.696,-0.212c0.727,0 1.363,0.162 1.908,0.485c0.545,0.323 1.1,0.787 1.665,1.393c0.767,0.565 1.151,1.453 1.151,2.664c0,0.848 -0.202,1.717 -0.606,2.605c-0.161,0.605 -0.797,1.373 -1.908,2.301c-1.11,0.929 -2.129,1.575 -3.058,1.938c-1.131,0.283 -2.423,0.424 -3.876,0.424c-0.969,0 -1.595,-0.08 -1.878,-0.242c-0.484,-0.283 -0.827,0.808 -1.029,3.271c-0.041,0.282 -0.061,0.666 -0.061,1.15c0,0.687 0.101,1.232 0.303,1.636c0.04,0.04 0.182,0.191 0.424,0.454c0.242,0.262 0.545,0.484 0.908,0.666c0.364,0.182 0.747,0.273 1.151,0.273c0.363,0 0.646,-0.041 0.848,-0.122c0.444,-0.121 0.868,-0.353 1.272,-0.696c0.404,-0.343 0.969,-0.878 1.696,-1.605c0.646,-0.646 1.11,-1.09 1.393,-1.332c0.202,-0.364 0.605,-0.546 1.211,-0.546c0.161,0 0.444,0.041 0.848,0.122c0.363,0.282 0.545,0.585 0.545,0.908c0,0.323 -0.202,0.929 -0.606,1.817c-0.202,0.404 -0.696,0.959 -1.484,1.666c-0.787,0.706 -1.483,1.261 -2.089,1.665c-1.252,0.687 -2.503,1.03 -3.755,1.03c-0.767,0 -1.656,-0.182 -2.665,-0.545Zm3.573,-12.295c0.404,-0.081 0.99,-0.182 1.757,-0.303c0.767,-0.121 1.403,-0.394 1.908,-0.818c0.504,-0.424 1.1,-1.16 1.786,-2.21c0.121,-0.323 0.182,-0.646 0.182,-0.969c0,-0.606 -0.121,-1.03 -0.363,-1.272c-0.283,-0.283 -0.606,-0.424 -0.969,-0.424c-0.566,0 -1.151,0.242 -1.757,0.727c-0.404,0.121 -0.999,0.565 -1.787,1.332c-0.787,0.767 -1.463,1.524 -2.028,2.271c-0.566,0.747 -0.747,1.181 -0.546,1.302c-0.08,0.122 0.122,0.212 0.606,0.273c0.485,0.061 0.888,0.091 1.211,0.091Z" style="fill:#fff;"/><path d="M490.718,183.653c-0.444,-0.243 -0.757,-0.485 -0.939,-0.727c-0.181,-0.242 -0.272,-0.586 -0.272,-1.03c0,-0.807 0.242,-2.099 0.727,-3.876c0.121,-1.009 0.252,-1.827 0.393,-2.453c0.142,-0.626 0.394,-1.241 0.757,-1.847c0.162,-0.606 0.445,-1.514 0.848,-2.726c0.889,-2.826 1.494,-5.006 1.817,-6.541c0.323,-0.888 0.606,-1.675 0.848,-2.362c0.243,-0.686 0.465,-1.312 0.666,-1.877c-0.08,0.242 0.424,-1.131 1.515,-4.119c0.323,-0.969 0.545,-1.716 0.666,-2.24c0.444,-1.817 0.949,-3.19 1.514,-4.119c0.283,-0.404 0.495,-0.747 0.636,-1.03c0.141,-0.282 0.272,-0.504 0.394,-0.666c0,-0.081 0.06,-0.151 0.181,-0.212c0.121,-0.06 0.263,-0.091 0.424,-0.091c0.485,0 0.889,0.162 1.212,0.485c0.201,-0.081 0.454,0.161 0.757,0.727c0.302,0.565 0.434,1.009 0.393,1.332c0,0.525 -0.141,1.01 -0.424,1.454c-0.161,0.161 -0.343,0.454 -0.545,0.878c-0.202,0.424 -0.383,0.777 -0.545,1.06c-0.081,0.282 -0.212,0.757 -0.394,1.423c-0.181,0.666 -0.353,1.222 -0.514,1.666c-0.202,0.484 -0.394,0.938 -0.576,1.362c-0.181,0.424 -0.333,0.798 -0.454,1.121c-0.161,0.525 -0.444,1.312 -0.848,2.362c-0.565,1.373 -0.949,2.443 -1.151,3.21c-0.08,0.242 -0.222,0.747 -0.424,1.514c-0.565,2.019 -1.11,3.493 -1.635,4.421c-0.323,0.525 -0.555,1.232 -0.696,2.12c-0.142,0.888 -0.233,1.433 -0.273,1.635c-0.606,1.817 -0.908,2.887 -0.908,3.21c-0.081,0.364 -0.222,1.07 -0.424,2.12c-0.243,1.292 -0.485,2.221 -0.727,2.786c-0.081,0.929 -0.384,1.393 -0.909,1.393c-0.323,0 -0.686,-0.121 -1.09,-0.363Z" style="fill:#fff;"/><path d="M500.045,187.044c-0.525,-0.161 -0.908,-0.464 -1.15,-0.908c-0.243,-0.444 -0.384,-1.07 -0.424,-1.878c0,-0.565 0.121,-1.423 0.363,-2.574c0.242,-1.15 0.384,-1.867 0.424,-2.15l0.061,-0.484c0.04,-0.202 0.111,-0.566 0.211,-1.091c0.101,-0.524 0.152,-0.646 0.152,-0.363l0.424,-1.635c0.283,-1.09 0.565,-2.1 0.848,-3.028c0.282,-0.929 0.484,-1.595 0.605,-1.999l0.727,-2.059c1.373,-3.957 2.504,-6.521 3.392,-7.692c0.04,-0.162 0.101,-0.313 0.182,-0.454c0.08,-0.142 0.141,-0.293 0.181,-0.455c0.041,-0.484 0.182,-0.908 0.424,-1.271c0.364,-0.606 0.666,-1.151 0.909,-1.636l0.242,-0.666c0.646,-1.373 1.211,-2.423 1.696,-3.149c0.161,-0.364 0.393,-0.788 0.696,-1.272c0.303,-0.485 0.555,-0.828 0.757,-1.03l-0.06,-0.06c0.202,-0.323 0.434,-0.525 0.696,-0.606c0.263,-0.081 0.616,-0.121 1.06,-0.121c0.525,0 0.838,0.071 0.939,0.212c0.101,0.141 0.151,0.515 0.151,1.12l0,0.545c0,0.404 -0.03,0.707 -0.09,0.909c-0.061,0.202 -0.212,0.444 -0.455,0.727l0.061,0c0,0 -0.041,0.101 -0.121,0.302c-0.081,0.202 -0.162,0.384 -0.243,0.546c-0.282,0.726 -0.484,1.13 -0.605,1.211c-0.242,0.283 -1.06,1.867 -2.453,4.754c-1.393,2.887 -2.332,4.936 -2.816,6.148l-0.303,0.908l-0.121,0.363c-0.444,0.97 -0.687,1.494 -0.727,1.575l-1.03,3.513l-0.303,1.272l-0.545,1.332l-0.363,1.151c-0.081,0.162 -0.141,0.363 -0.182,0.606c-0.04,0.242 -0.121,0.424 -0.242,0.545l-0.061,0.303c-0.484,2.22 -0.807,4.36 -0.969,6.42l-0.06,0.242c-0.081,0.686 -0.222,1.191 -0.424,1.514c-0.202,0.323 -0.485,0.484 -0.848,0.484c-0.081,0 -0.283,-0.04 -0.606,-0.121Z" style="fill:#fff;"/><path d="M546.741,184.743c-0.404,0.081 -0.767,0.121 -1.09,0.121c-0.525,0 -1.009,-0.051 -1.454,-0.151c-0.444,-0.101 -0.666,-0.233 -0.666,-0.394c0,-0.121 -0.02,-0.202 -0.06,-0.242c-0.041,-0.041 -0.122,-0.061 -0.243,-0.061c-0.04,-0.04 -0.161,-0.141 -0.363,-0.303c-0.202,-0.161 -0.444,-0.303 -0.727,-0.424c-0.363,-0.565 -0.545,-1.171 -0.545,-1.817c0,-0.686 0.182,-1.756 0.545,-3.21c0.121,-1.292 0.727,-2.907 1.817,-4.845c1.09,-1.938 2.372,-3.775 3.846,-5.511c1.474,-1.737 2.796,-2.948 3.967,-3.634c0.606,-0.606 1.373,-0.909 2.302,-0.909c0.726,0 1.413,0.182 2.059,0.545c0.565,0.323 1.161,0.868 1.786,1.636c0.626,0.767 1.121,1.554 1.484,2.362c0.162,0.605 0.243,1.191 0.243,1.756c0,0.606 -0.081,1.555 -0.243,2.847c-0.202,0.726 -0.373,1.615 -0.515,2.664c-0.141,1.05 -0.212,1.959 -0.212,2.726c-0.08,0.565 -0.04,1.019 0.122,1.363c0.161,0.343 0.383,0.514 0.666,0.514c0.202,0 0.424,-0.06 0.666,-0.181c0.404,-0.202 0.848,-0.303 1.332,-0.303c0.445,0 0.808,0.121 1.091,0.363c0.282,0.243 0.424,0.606 0.424,1.09c0,0.727 -0.495,1.454 -1.484,2.181c-0.989,0.727 -1.928,1.09 -2.817,1.09c-0.605,0 -1.16,-0.474 -1.665,-1.423c-0.505,-0.949 -0.999,-2.171 -1.484,-3.664l-0.363,-1.393l-2.605,2.483l-1.393,1.393c-0.646,0.646 -1.009,1.029 -1.09,1.15c-0.444,0.768 -1.554,1.494 -3.331,2.181Zm0.182,-3.574c0.969,-0.565 2.16,-1.554 3.573,-2.967c1.413,-1.413 2.584,-2.766 3.513,-4.058c1.252,-1.656 2.039,-3.291 2.362,-4.906c-0.162,-0.484 -0.424,-0.969 -0.787,-1.453c-0.364,-0.485 -0.687,-0.747 -0.969,-0.788c-0.808,0 -1.656,0.465 -2.544,1.393c-0.888,0.929 -1.938,2.221 -3.15,3.876l-1.998,2.968c-0.242,0.323 -0.666,1.181 -1.272,2.574c-0.606,1.393 -0.909,2.231 -0.909,2.514c0,0.888 0.263,1.332 0.788,1.332c0.404,0 0.868,-0.162 1.393,-0.485Z" style="fill:#fff;"/><path d="M570.725,186.015c-1.373,0 -2.564,-0.283 -3.573,-0.848c-1.01,-0.566 -1.676,-1.333 -1.999,-2.302c-0.283,-0.727 -0.424,-1.13 -0.424,-1.211c0,-0.242 0.141,-0.424 0.424,-0.545c0.283,0 0.616,0.121 0.999,0.363c0.384,0.243 0.697,0.404 0.939,0.485c0.606,0.565 1.433,0.848 2.483,0.848c0.808,0 1.545,-0.162 2.211,-0.485c0.666,-0.323 1.04,-0.706 1.12,-1.151c0,-0.201 -0.202,-0.908 -0.605,-2.119c-1.01,-1.454 -1.787,-2.938 -2.332,-4.452c-0.545,-1.514 -0.818,-2.796 -0.818,-3.846c0,-0.767 0.222,-1.554 0.666,-2.362c0.445,-0.807 1.05,-1.494 1.817,-2.059c1.01,-1.05 2.231,-1.999 3.665,-2.847c1.433,-0.848 2.735,-1.433 3.906,-1.756c0.485,0 1.08,0.061 1.787,0.182c0.706,0.121 1.201,0.262 1.484,0.424c0.444,0.161 0.868,0.605 1.272,1.332c0.403,0.727 0.605,1.413 0.605,2.059c0,0.646 -0.343,1.535 -1.029,2.665c-0.081,0.283 -0.243,0.666 -0.485,1.151c-0.242,0.484 -0.363,0.787 -0.363,0.908c-0.162,0.404 -0.424,0.606 -0.788,0.606c-0.363,0 -0.716,-0.172 -1.06,-0.515c-0.343,-0.343 -0.615,-0.757 -0.817,-1.241c-0.121,-0.485 -0.182,-0.909 -0.182,-1.272c0,-0.485 0.162,-0.969 0.485,-1.454c0.444,-0.444 0.666,-0.747 0.666,-0.908c0,-0.162 -0.222,-0.243 -0.666,-0.243c-0.485,0 -1.414,0.384 -2.786,1.151c-1.373,0.767 -2.463,1.575 -3.271,2.423c-0.727,0.686 -1.171,1.201 -1.332,1.544c-0.162,0.343 -0.243,0.858 -0.243,1.545c0,0.605 0.132,1.322 0.394,2.15c0.262,0.827 0.535,1.383 0.818,1.665c0.08,0.162 0.252,0.505 0.514,1.03c0.263,0.525 0.576,1.029 0.939,1.514c0.808,1.817 1.212,3.23 1.212,4.24c0,1.171 -0.455,2.018 -1.363,2.543c-0.909,0.525 -2.332,0.788 -4.27,0.788Z" style="fill:#fff;"/><text x="316.593px" y="186.499px" style="font-family:'Caveat-Regular', 'Caveat';font-size:60.565px;fill:#fff;">M<tspan x="360.806px " y="186.499px ">i</tspan>s <tspan x="504.164px " y="186.499px ">i</tspan>t</text></g></g></svg>