<?xml version="1.0" encoding="UTF-8" standalone="no"?>
<!DOCTYPE svg PUBLIC "-//W3C//DTD SVG 1.1//EN" "http://www.w3.org/Graphics/SVG/1.1/DTD/svg11.dtd">
<svg width="100%" height="100%" viewBox="0 0 256 219" version="1.1" xmlns="http://www.w3.org/2000/svg" xmlns:xlink="http://www.w3.org/1999/xlink" xml:space="preserve" xmlns:serif="http://www.serif.com/" style="fill-rule:evenodd;clip-rule:evenodd;stroke-linejoin:round;stroke-miterlimit:2;">
    <g transform="matrix(1,0,0,1,-121.429,-187.465)">
        <g id="Final">
            <g>
                <path d="M175.402,382.056L217.483,365.838C217.483,365.838 228.351,372.782 233.001,375.754C234.306,376.587 235.926,376.763 237.379,376.228C237.379,376.228 237.379,376.228 237.379,376.227C239.566,375.422 240.899,373.207 240.587,370.898C238.966,358.906 234.214,323.75 234.214,323.75C234.214,323.75 264.277,387.735 271.192,402.453C271.988,404.146 273.946,404.949 275.702,404.303C275.703,404.303 275.704,404.302 275.704,404.302C277.028,403.815 277.87,402.511 277.77,401.103C276.985,390.12 273.745,344.79 273.745,344.79L314.159,330.713C320.463,341.692 324.068,354.415 324.068,367.972C324.068,376.156 322.729,384.25 320.144,391.946C317.382,400.036 309.781,405.472 301.232,405.472C276.368,405.472 221.768,405.472 196.903,405.462C188.36,405.462 180.762,400.028 178.001,391.942C176.911,388.71 176.043,385.407 175.402,382.056ZM174.524,376.231C174.221,373.496 174.068,370.739 174.068,367.972C174.068,326.579 207.674,292.972 249.068,292.972C274.983,292.972 297.846,306.145 311.32,326.154L266.685,341.796L269.635,382.683C269.635,382.683 238.927,317.207 231.683,301.759C230.824,299.928 228.707,299.058 226.809,299.757C226.808,299.757 226.808,299.758 226.807,299.758C225.175,300.359 224.18,302.014 224.416,303.738C226.196,316.753 233.259,368.379 233.259,368.379L218.804,359.219L174.524,376.231Z"/>
            </g>
            <g transform="matrix(1.79606,0,0,1.79606,-431.241,-178.776)">
                <g id="central" transform="matrix(-0.933779,1.14355e-16,-1.14355e-16,-0.933779,623.412,415.916)">
                    <path d="M261.983,173.69C261.983,173.69 235.514,192.505 235.514,200.568C235.514,215.177 247.374,227.037 261.983,227.037C276.591,227.037 288.452,215.177 288.452,200.568C288.452,192.505 261.983,173.69 261.983,173.69Z"/>
                </g>
                <g id="izquierda" transform="matrix(-0.624043,0.624043,-0.624043,-0.624043,619.718,205.529)">
                    <path d="M261.983,173.69C263.306,177.05 235.514,192.505 235.514,200.568C235.514,215.177 247.374,227.037 261.983,227.037C276.591,227.037 288.452,215.177 288.452,200.568C288.452,192.505 265.292,173.741 261.983,173.69Z"/>
                </g>
                <g id="derecha" transform="matrix(-0.624043,-0.624043,0.624043,-0.624043,464.795,532.506)">
                    <path d="M261.983,173.69C258.674,173.741 235.514,192.505 235.514,200.568C235.514,215.177 247.374,227.037 261.983,227.037C276.591,227.037 288.452,215.177 288.452,200.568C288.452,192.505 260.66,177.05 261.983,173.69Z"/>
                </g>
            </g>
        </g>
    </g>
</svg>
